<?xml version="1.0" encoding="UTF-8" standalone="no"?>
<!DOCTYPE svg PUBLIC "-//W3C//DTD SVG 1.1//EN" "http://www.w3.org/Graphics/SVG/1.1/DTD/svg11.dtd">
<svg width="100%" height="100%" viewBox="0 0 876 326" version="1.1" xmlns="http://www.w3.org/2000/svg" xmlns:xlink="http://www.w3.org/1999/xlink" xml:space="preserve" xmlns:serif="http://www.serif.com/" style="fill-rule:evenodd;clip-rule:evenodd;stroke-linecap:round;stroke-linejoin:round;stroke-miterlimit:1.5;">
    <g transform="matrix(1,0,0,1,-326,-5809)">
        <g id="appLogo" transform="matrix(0.611518,0,0,0.934097,114.109,326.782)">
            <rect x="346.5" y="5869" width="1432.5" height="349" style="fill:none;"/>
            <g transform="matrix(-1.68313,-1.34942e-16,1.86032e-16,-0.994477,3053.57,7133.33)">
                <path d="M1581.15,1014.07C1581.15,1005.75 1575.06,999 1567.55,999L1395.6,999C1388.1,999 1382,1005.75 1382,1014.07L1382,1183.08C1382,1191.4 1388.1,1198.15 1395.6,1198.15L1567.55,1198.15C1575.06,1198.15 1581.15,1191.4 1581.15,1183.08L1581.15,1014.07Z" style="fill:white;stroke:rgb(49,49,49);stroke-width:4.08px;"/>
            </g>
            <g transform="matrix(-15.1156,-1.21187e-15,1.30903e-15,-6.9977,5940.84,7476.01)">
                <clipPath id="_clip1">
                    <path d="M345.096,217.127C345.096,218.141 345.677,218.963 346.394,218.963L352.236,218.963L352.236,191.273L346.394,191.273C345.677,191.273 345.096,192.095 345.096,193.109L345.096,217.127Z"/>
                </clipPath>
                <g clip-path="url(#_clip1)">
                    <g opacity="0.5">
                        <g transform="matrix(0.217773,-1.61056e-32,-1.02556e-32,0.277344,-210.535,-127.641)">
                            <path d="M2546,1173L2588.5,1130.5" style="fill:none;stroke:rgb(49,49,49);stroke-width:1.04px;stroke-linecap:square;"/>
                        </g>
                        <g transform="matrix(0.217773,-1.61056e-32,-1.02556e-32,0.277344,-210.535,-124.868)">
                            <path d="M2546,1173L2588.5,1130.5" style="fill:none;stroke:rgb(49,49,49);stroke-width:1.04px;stroke-linecap:square;"/>
                        </g>
                        <g transform="matrix(0.217773,-1.61056e-32,-1.02556e-32,0.277344,-210.535,-122.094)">
                            <path d="M2546,1173L2588.5,1130.5" style="fill:none;stroke:rgb(49,49,49);stroke-width:1.04px;stroke-linecap:square;"/>
                        </g>
                        <g transform="matrix(0.217773,-1.61056e-32,-1.02556e-32,0.277344,-210.535,-119.321)">
                            <path d="M2546,1173L2588.5,1130.5" style="fill:none;stroke:rgb(49,49,49);stroke-width:1.04px;stroke-linecap:square;"/>
                        </g>
                        <g transform="matrix(0.217773,-1.61056e-32,-1.02556e-32,0.277344,-210.535,-116.547)">
                            <path d="M2546,1173L2588.5,1130.5" style="fill:none;stroke:rgb(49,49,49);stroke-width:1.04px;stroke-linecap:square;"/>
                        </g>
                        <g transform="matrix(0.217773,-1.61056e-32,-1.02556e-32,0.277344,-210.535,-113.774)">
                            <path d="M2546,1173L2588.5,1130.5" style="fill:none;stroke:rgb(49,49,49);stroke-width:1.04px;stroke-linecap:square;"/>
                        </g>
                        <g transform="matrix(0.217773,-1.61056e-32,-1.02556e-32,0.277344,-210.535,-111)">
                            <path d="M2546,1173L2588.5,1130.5" style="fill:none;stroke:rgb(49,49,49);stroke-width:1.04px;stroke-linecap:square;"/>
                        </g>
                        <g transform="matrix(0.217773,-1.61056e-32,-1.02556e-32,0.277344,-210.535,-108.227)">
                            <path d="M2546,1173L2588.5,1130.5" style="fill:none;stroke:rgb(49,49,49);stroke-width:1.04px;stroke-linecap:square;"/>
                        </g>
                        <g transform="matrix(0.217773,-1.61056e-32,-1.02556e-32,0.277344,-210.535,-105.454)">
                            <path d="M2546,1173L2588.5,1130.5" style="fill:none;stroke:rgb(49,49,49);stroke-width:1.04px;stroke-linecap:square;"/>
                        </g>
                        <g transform="matrix(0.217773,-1.61056e-32,-1.02556e-32,0.277344,-210.535,-102.68)">
                            <path d="M2546,1173L2588.5,1130.5" style="fill:none;stroke:rgb(49,49,49);stroke-width:1.04px;stroke-linecap:square;"/>
                        </g>
                        <g transform="matrix(0.217773,-1.61056e-32,-1.02556e-32,0.277344,-210.535,-99.9067)">
                            <path d="M2546,1173L2588.5,1130.5" style="fill:none;stroke:rgb(49,49,49);stroke-width:1.04px;stroke-linecap:square;"/>
                        </g>
                        <g transform="matrix(0.217773,-1.61056e-32,-1.02556e-32,0.277344,-210.535,-97.1333)">
                            <path d="M2546,1173L2588.5,1130.5" style="fill:none;stroke:rgb(49,49,49);stroke-width:1.04px;stroke-linecap:square;"/>
                        </g>
                        <g transform="matrix(0.217773,-1.61056e-32,-1.02556e-32,0.277344,-210.535,-130.415)">
                            <path d="M2546,1173L2588.5,1130.5" style="fill:none;stroke:rgb(49,49,49);stroke-width:1.04px;stroke-linecap:square;"/>
                        </g>
                    </g>
                </g>
            </g>
            <g transform="matrix(-2.68159,-2.14991e-16,2.9639e-16,-1.58442,7608.45,7931.83)">
                <path d="M2608.5,1131L2608.5,1256" style="fill:none;stroke:rgb(49,49,49);stroke-width:2.56px;stroke-linecap:butt;"/>
            </g>
            <g transform="matrix(1.33215,0,0,0.872106,-1486.44,4005.33)">
                <text x="1590px" y="2411.51px" style="font-family:'Quicksand-Bold', 'Quicksand';font-weight:700;font-size:220.959px;fill:rgb(49,49,49);">I</text>
            </g>
            <g transform="matrix(1.33215,0,0,0.872106,-1477.77,4006.09)">
                <text x="1409px" y="2410px" style="font-family:'Quicksand-Bold', 'Quicksand';font-weight:700;font-size:220.959px;fill:rgb(49,49,49);">U</text>
            </g>
            <g transform="matrix(1.65029,0,0,1.08039,293.07,5404.1)">
                <text x="287px" y="651px" style="font-family:'Quicksand-Regular', 'Quicksand';font-size:178.362px;fill:white;">G<tspan x="414.529px 484.625px 595.566px 706.507px " y="651px 651px 651px 651px ">raph</tspan></text>
            </g>
        </g>
    </g>
</svg>
